<?xml version="1.0" encoding="utf-8"?>
<!-- Generator: Adobe Illustrator 21.1.0, SVG Export Plug-In . SVG Version: 6.00 Build 0)  -->
<svg version="1.1" id="Calque_1" xmlns="http://www.w3.org/2000/svg" xmlns:xlink="http://www.w3.org/1999/xlink" x="0px" y="0px"
	 viewBox="0 0 1238 1238" style="enable-background:new 0 0 1238 1238;" xml:space="preserve">
<style type="text/css">
	.st0{fill:#F86759;}
</style>
<g>
	<g>
		<g>
			<path class="st0" d="M78.8,721.7l-4.8-3.4c-0.9-0.7-0.9-1.5-0.3-2.3c0.9-1.2,2.1-3,1.7-5.5c-0.5-3-3.5-5.8-8.8-5l-36.7,5.8
				c-0.8,0.1-1.6-0.4-1.7-1.2l-1.2-7.3c-0.1-0.9,0.5-1.6,1.2-1.7l36.7-5.8c10.8-1.7,18.2,4.5,19.6,13.6c1.1,6.8-2.4,11.1-3.8,12.7
				C80.2,722,79.4,722.1,78.8,721.7z"/>
			<path class="st0" d="M22,613.2c-0.8,0-1.5-0.8-1.4-1.6l0.3-7.5c0-0.9,0.8-1.5,1.6-1.4l32.1,1.4c6.7,0.3,12.1-4.1,12.4-10.9
				c0.3-6.8-4.8-11.7-11.4-12l-32.2-1.4c-0.8,0-1.5-0.7-1.4-1.6l0.3-7.5c0-0.8,0.8-1.5,1.6-1.4l32.7,1.4c12,0.5,21.2,10.4,20.7,22.8
				c-0.5,12.3-10.6,21.4-22.5,20.9L22,613.2z"/>
			<path class="st0" d="M38,480.2c-0.8-0.2-1.3-1-1.1-1.8l1.8-7c0.2-0.8,1.1-1.3,1.8-1.1l42.8,11l5-19.4c0.2-0.8,1.1-1.3,1.8-1.1
				l6.3,1.6c0.8,0.2,1.3,1,1.1,1.8L90.3,492c-0.2,0.8-1.1,1.3-1.8,1.1L38,480.2z"/>
			<path class="st0" d="M75,371.1c-0.7-0.3-1.1-1.3-0.7-2l3.1-6.7c0.3-0.7,1.3-1.1,2-0.7l47.3,21.8c0.7,0.3,1.1,1.3,0.7,2l-3.1,6.7
				c-0.3,0.7-1.3,1.1-2,0.7L75,371.1z"/>
			<path class="st0" d="M123.7,283.1c-0.6-0.5-0.9-1.4-0.4-2.1l18.6-26.1c0.5-0.7,1.4-0.8,2.1-0.4l5.3,3.7c0.6,0.5,0.9,1.4,0.3,2.1
				l-13.5,19l10.5,7.5l11.3-15.8c0.5-0.6,1.4-0.8,2.1-0.4l5.3,3.8c0.7,0.5,0.8,1.4,0.4,2.1l-11.3,15.8l11.2,8l13.5-19
				c0.5-0.7,1.4-0.8,2.1-0.4l5.3,3.7c0.6,0.5,0.9,1.4,0.4,2.1L168.3,313c-0.5,0.7-1.4,0.8-2.1,0.3L123.7,283.1z"/>
			<path class="st0" d="M272.2,129.8c-0.4-0.7-0.3-1.6,0.4-2.1l26.5-18c0.7-0.5,1.6-0.3,2.1,0.4l3.6,5.3c0.4,0.6,0.3,1.6-0.4,2.1
				l-19.3,13.1l8.3,12.2l16.1-10.9c0.6-0.4,1.6-0.3,2.1,0.4l3.6,5.3c0.4,0.7,0.3,1.6-0.4,2.1l-16.1,10.9l11.2,16.5
				c0.4,0.7,0.3,1.6-0.4,2.1l-6,4.1c-0.7,0.5-1.6,0.3-2.1-0.4L272.2,129.8z"/>
			<path class="st0" d="M376.8,69.7c-0.3-0.7,0-1.6,0.8-2l29.6-12.3c0.8-0.3,1.6,0.1,2,0.8l2.5,6c0.3,0.7,0,1.6-0.8,2l-21.5,8.9
				l4.9,11.9l17.9-7.4c0.7-0.3,1.6,0.1,1.9,0.8l2.5,6c0.3,0.8-0.1,1.7-0.8,2l-17.9,7.4l5.3,12.7l21.5-8.9c0.8-0.3,1.6,0.1,1.9,0.8
				l2.5,6c0.3,0.7,0,1.6-0.8,2l-29.6,12.3c-0.8,0.3-1.6-0.1-2-0.8L376.8,69.7z"/>
			<path class="st0" d="M493.7,31.2c-0.1-0.8,0.3-1.6,1.2-1.7l22.1-4.1c9.3-1.7,18.2,4.3,19.9,13.5c1.3,7.1-2.3,13.8-8.6,17.8
				l14.2,17.7c0.7,0.9,0.4,2.2-0.9,2.5l-8.1,1.5c-0.7,0.1-1.1-0.2-1.4-0.5l-14.1-18.6l-8.6,1.6l3.7,19.7c0.1,0.8-0.4,1.6-1.2,1.7
				l-7.1,1.3c-0.9,0.2-1.6-0.4-1.7-1.2L493.7,31.2z M520.7,50.2c4.1-0.8,7-5,6.2-9.3c-0.8-4.1-4.9-6.8-9-6.1l-12.6,2.3l2.9,15.4
				L520.7,50.2z"/>
			<path class="st0" d="M621.9,17.5c0-0.8,0.7-1.5,1.5-1.5l22.5,0.7c9.4,0.3,16.9,8.1,16.6,17.4c-0.2,7.2-5.2,13-12.1,15.5L660.6,70
				c0.5,1-0.1,2.3-1.4,2.2l-8.2-0.3c-0.7,0-1.1-0.4-1.2-0.7L639.9,50l-8.7-0.3l-0.6,20c0,0.8-0.8,1.5-1.5,1.5l-7.2-0.2
				c-0.9,0-1.5-0.7-1.4-1.5L621.9,17.5z M644.3,41.8c4.2,0.1,7.9-3.4,8-7.8c0.1-4.2-3.4-7.7-7.5-7.9L632,25.7l-0.5,15.6L644.3,41.8z
				"/>
			<path class="st0" d="M749.3,31.3c0.2-0.8,1-1.3,1.8-1.1l7.1,1.6c0.8,0.2,1.3,1,1.1,1.8l-11.5,50.9c-0.2,0.8-1,1.3-1.8,1.1
				l-7.1-1.6c-0.8-0.2-1.3-1-1.1-1.8L749.3,31.3z"/>
			<path class="st0" d="M845.4,60.7c0.3-0.7,1.2-1.1,2-0.8l29.4,12.7c0.8,0.3,1.1,1.2,0.8,2l-2.6,5.9c-0.3,0.7-1.2,1.1-2,0.8
				L851.6,72l-5.1,11.8l17.8,7.7c0.7,0.3,1.1,1.3,0.8,2l-2.6,6c-0.3,0.8-1.2,1.1-2,0.8l-17.8-7.7l-5.5,12.6l21.4,9.2
				c0.8,0.4,1.1,1.3,0.8,2l-2.6,5.9c-0.3,0.7-1.2,1.1-2,0.8l-29.4-12.7c-0.8-0.4-1.1-1.3-0.8-2L845.4,60.7z"/>
			<path class="st0" d="M953.7,117.6c0.5-0.6,1.5-0.8,2.1-0.3l6.1,4.4c0.7,0.5,0.8,1.5,0.3,2.1l-18.8,26.1
				c-3.9,5.4-3.3,12.4,2.3,16.4s12.4,2.4,16.3-2.9l18.9-26.2c0.5-0.6,1.4-0.8,2.1-0.3l6.1,4.4c0.6,0.5,0.8,1.5,0.3,2.1l-19.1,26.6
				c-7,9.7-20.4,12-30.5,4.7c-10-7.2-12.1-20.6-5.1-30.3L953.7,117.6z"/>
			<path class="st0" d="M1045,229.3l7.8-28.2c0.3-1.2,1.6-1.5,2.5-0.5l6.1,6.8c0.4,0.5,0.4,1,0.3,1.4l-5.7,18.6l0.1,0.1l19.2-3.5
				c0.3-0.1,0.9,0,1.4,0.5l6.1,6.8c0.9,1,0.4,2.3-0.7,2.5l-28.9,4.7l-8.4,29.6c-0.4,1.2-1.6,1.5-2.5,0.5l-5.7-6.3
				c-0.4-0.5-0.5-1.1-0.4-1.5l5.9-20.4l-0.1-0.2l-20.8,3.8c-0.4,0-1-0.1-1.4-0.5l-5.7-6.3c-0.9-1.1-0.5-2.3,0.7-2.5L1045,229.3z"/>
			<path class="st0" d="M1135.3,387.7l4.9-2.1c0.8-0.3,1.6,0,2,0.8l6.9,16.2c0.3,0.8,0,1.6-0.8,2l-4.9,2.1c-0.7,0.3-1.5,0-1.9-0.8
				l-6.9-16.2C1134.2,388.8,1134.6,388,1135.3,387.7z"/>
			<path class="st0" d="M1166.4,553.8l54.5,20.8c0.5,0.2,0.9,0.6,1,1.3l0.1,0.8c0,0.8-0.3,1.1-0.8,1.4l-51.2,27.8
				c-1,0.5-2.1,0-2.1-1.2l-0.5-6.8c-0.1-1.2,0.4-1.8,1.4-2.4l8.2-4.4l-1.6-23.5l-8.7-3.3c-0.8-0.3-1.6-0.9-1.7-2.2l-0.5-6.8
				C1164.4,554.1,1165.4,553.4,1166.4,553.8z M1185.5,586.6l16.7-9l0-0.2l-17.8-6.5L1185.5,586.6z"/>
			<path class="st0" d="M1217.4,686.6c0.8,0.1,1.4,0.8,1.3,1.7l-3.3,22.3c-1.4,9.4-10,15.9-19.3,14.5c-7.2-1.1-12.3-6.7-14-13.8
				l-21.4,7.7c-1.1,0.4-2.3-0.3-2.1-1.7l1.2-8.2c0.1-0.7,0.5-1,0.9-1.1l22.2-7.3l1.3-8.7l-19.9-2.9c-0.8-0.1-1.4-0.9-1.3-1.7
				l1.1-7.2c0.1-0.9,0.9-1.4,1.7-1.3L1217.4,686.6z M1190.6,706c-0.6,4.1,2.4,8.2,6.8,8.9c4.1,0.6,8.1-2.5,8.7-6.6l1.9-12.7
				l-15.5-2.3L1190.6,706z"/>
			<path class="st0" d="M1178.6,816.4l4.2-11.3c0.3-0.8,1.2-1.2,1.9-0.9l6,2.2c0.7,0.3,1.2,1.1,0.9,1.9l-11.9,32.3
				c-0.3,0.8-1.2,1.2-1.9,0.9l-6.1-2.2c-0.7-0.3-1.2-1.1-0.9-1.9l4.2-11.3l-41.4-15.2c-0.7-0.3-1.2-1.2-0.9-1.9l2.5-6.9
				c0.3-0.7,1.2-1.2,1.9-0.9L1178.6,816.4z"/>
			<path class="st0" d="M1088.5,993.6c0.6,0.5,0.7,1.5,0.2,2.1l-12.2,14.1c-10,11.5-27.4,12.7-38.9,2.8c-11.5-10-12.7-27.5-2.7-39
				l12.2-14.1c0.5-0.6,1.5-0.6,2.1-0.1L1088.5,993.6z M1042.8,979.1c-6.7,7.7-5.8,18.4,2,25.2c7.7,6.7,18.5,6.1,25.2-1.6l5.9-6.8
				l-27.2-23.6L1042.8,979.1z"/>
			<path class="st0" d="M993.2,1087.5c0.5,0.6,0.4,1.6-0.3,2.1l-5.8,4.5c-0.6,0.5-1.6,0.4-2.1-0.3l-32-41.1
				c-0.5-0.6-0.4-1.6,0.3-2.1l5.8-4.5c0.6-0.5,1.6-0.4,2.1,0.3L993.2,1087.5z"/>
			<path class="st0" d="M909.4,1143.4c0.4,0.7,0.1,1.6-0.7,2l-20.1,10.2c-8.4,4.3-18.7,1-23-7.4c-3.3-6.5-1.6-13.9,3.2-19.4
				l-18.6-13c-1-0.7-1-2,0.2-2.6l7.4-3.7c0.6-0.3,1.2-0.2,1.4,0.1l18.8,13.9l7.8-3.9l-9.1-17.9c-0.4-0.7,0-1.7,0.7-2l6.5-3.3
				c0.8-0.4,1.7,0,2,0.7L909.4,1143.4z M878.1,1132.7c-3.7,1.9-5.3,6.7-3.3,10.7c1.9,3.7,6.7,5.2,10.4,3.3l11.5-5.8l-7.1-14
				L878.1,1132.7z"/>
			<path class="st0" d="M790.1,1192.5c0.2,0.8-0.2,1.6-1.1,1.8l-31,8.1c-0.8,0.2-1.6-0.3-1.8-1.1l-1.6-6.2c-0.2-0.8,0.2-1.6,1.1-1.8
				l22.5-5.9l-3.3-12.5l-18.8,4.9c-0.8,0.2-1.6-0.3-1.8-1.1l-1.7-6.3c-0.2-0.8,0.3-1.6,1.1-1.8l18.8-4.9l-3.5-13.3l-22.5,5.9
				c-0.8,0.2-1.6-0.3-1.8-1.1l-1.6-6.2c-0.2-0.8,0.2-1.6,1.1-1.8l31-8.1c0.8-0.2,1.6,0.3,1.8,1.1L790.1,1192.5z"/>
			<path class="st0" d="M645.3,1218.2c-7.9,0.4-13.8-1.9-19.4-6.4c-0.7-0.6-0.8-1.5-0.2-2.2l4.6-5.2c0.5-0.7,1.3-0.7,2-0.1
				c3.4,2.8,7.9,4.3,12.3,4.1c10.1-0.5,17.1-9.2,16.7-19.1c-0.5-9.8-8.4-17.8-18.5-17.3c-4.7,0.2-8.6,2.2-11.8,5.1
				c-0.6,0.6-1.5,0.5-2,0.1l-5.1-4.8c-0.6-0.5-0.5-1.6,0-2.1c5.1-5.4,11.7-8.2,18.7-8.5c15.7-0.7,29,11.2,29.7,26.9
				C673.1,1204.2,661,1217.4,645.3,1218.2z"/>
			<path class="st0" d="M533.4,1201.9l11.9,1.9c0.9,0.1,1.4,0.9,1.2,1.7l-1,6.4c-0.1,0.8-0.9,1.4-1.7,1.2l-34-5.4
				c-0.9-0.1-1.4-0.9-1.2-1.7l1-6.4c0.1-0.8,0.9-1.4,1.7-1.2l11.9,1.9l6.9-43.6c0.1-0.8,0.9-1.4,1.7-1.3l7.2,1.2
				c0.8,0.1,1.4,0.9,1.2,1.7L533.4,1201.9z"/>
			<path class="st0" d="M427.8,1184.3c-0.3,0.7-1.2,1.2-1.9,0.9l-6.9-2.4c-0.7-0.3-1.2-1.2-0.9-1.9l17.3-49.2
				c0.3-0.7,1.2-1.2,1.9-0.9l6.9,2.4c0.7,0.3,1.2,1.2,0.9,1.9L427.8,1184.3z"/>
			<path class="st0" d="M313.1,1133.5c-13.5-8.1-17.8-25.4-9.7-38.9c8.1-13.5,25.3-17.8,38.8-9.7c13.5,8.1,17.8,25.3,9.7,38.8
				C343.8,1137.1,326.6,1141.6,313.1,1133.5z M336.9,1093.7c-8.5-5.1-19.7-2.4-24.8,6.2c-5.1,8.5-2.3,19.8,6.2,24.9
				c8.5,5.1,19.7,2.2,24.8-6.3C348.2,1109.9,345.4,1098.8,336.9,1093.7z"/>
			<path class="st0" d="M219.9,1063.5c-0.5,0.6-1.5,0.5-2.1,0l-1.4-1.4l0.7-47.8l-0.1-0.1l-22.6,23.3c-0.5,0.6-1.5,0.6-2.1,0l-5.2-5
				c-0.6-0.5-0.6-1.5,0-2.1l36.9-38c0.5-0.6,1.5-0.5,2.1,0l1.4,1.3l-1.5,48.8l0,0.1l23.6-24.3c0.5-0.6,1.5-0.6,2.1,0l5.1,5
				c0.6,0.5,0.6,1.6,0,2.1L219.9,1063.5z"/>
			<path class="st0" d="M129.9,890l-4.6,2.5c-0.8,0.4-1.6,0.1-2-0.6l-8.2-15.5c-0.4-0.8-0.1-1.6,0.6-2l4.7-2.5
				c0.7-0.4,1.5-0.1,2,0.7l8.2,15.5C130.8,888.7,130.6,889.6,129.9,890z"/>
		</g>
	</g>
</g>
</svg>
