<svg class="icon-in" version="1.1" xmlns="http://www.w3.org/2000/svg" viewBox="0 0 40 40" >
<path d="M22.4,17.1c0.1-0.1,0.2-0.3,0.3-0.4c1.6-2.3,3.7-3.5,6.5-3.7c1.8-0.1,3.5,0.2,5.1,1c1.3,0.6,2.3,1.5,3.1,2.7
	c1.3,1.9,1.8,4,1.9,6.3c0.1,5,0.1,10,0.1,15.1c0,0.3-0.1,0.3-0.4,0.3c-2.5,0-5,0-7.5,0c-0.4,0-0.4,0-0.4-0.5c0-4.1,0-8.3,0-12.4
	c0-1.2-0.1-2.3-0.5-3.4c-0.6-1.7-2.1-2.7-3.9-2.6c-2.1,0.1-3.4,1.2-4.1,3.1c-0.3,0.7-0.3,1.5-0.3,2.3c0,4.3,0,8.7,0,13
	c0,0.5,0,0.5-0.5,0.5c-2.4,0-4.8,0-7.2,0c-0.4,0-0.4,0-0.4-0.4c0-6.3,0-12.7,0.1-19c0-1.6,0-3.3-0.1-4.9c0-0.4,0-0.4,0.4-0.4
	c2.4,0,4.9,0,7.3,0c0.4,0,0.4,0,0.4,0.4c0,0.9,0,1.8,0,2.7C22.4,16.8,22.4,16.9,22.4,17.1C22.4,17.1,22.4,17.1,22.4,17.1z"/>
<path d="M1.3,26c0-4,0-7.9,0-11.9c0-0.5,0-0.5,0.5-0.5c2.4,0,4.8,0,7.2,0c0.5,0,0.5,0,0.5,0.5c0,7.9,0,15.9,0,23.8
	c0,0.5,0,0.5-0.5,0.5c-2.4,0-4.8,0-7.2,0c-0.5,0-0.5,0-0.5-0.5C1.3,34,1.3,30,1.3,26z"/>
<path d="M5.4,10.2C4,10.1,2.8,9.8,1.9,8.8C0.8,7.5,0.5,6.1,1,4.5c0.5-1.6,1.6-2.4,3.2-2.8c1.4-0.3,2.8-0.2,4,0.7
	c1.5,1,2,2.5,1.7,4.2C9.7,8.4,8.6,9.5,6.9,9.9C6.4,10.1,5.9,10.1,5.4,10.2z"/>
</svg>
