<svg version="1.1" class="icon-pin" xmlns="http://www.w3.org/2000/svg" viewBox="0 0 40 40">
<path d="M18.2,26C18,26.2,18,26.4,18,26.5c0,0.1-0.1,0.2-0.1,0.4c0,0.2-0.1,0.4-0.1,0.6c-0.1,0.3-0.2,0.6-0.2,0.8c0,0,0,0.1,0,0.1
	c-0.1,0.3-0.1,0.5-0.2,0.8c-0.1,0.2-0.1,0.5-0.2,0.7c-0.1,0.5-0.3,1-0.4,1.5c-0.1,0.4-0.2,0.9-0.4,1.3c-0.1,0.3-0.2,0.6-0.4,0.9
	c-0.1,0.2-0.2,0.4-0.3,0.6c0,0.1-0.1,0.2-0.1,0.3c-0.1,0.2-0.3,0.5-0.4,0.7c-0.1,0.2-0.3,0.5-0.4,0.7c-0.1,0.2-0.3,0.4-0.4,0.7
	c-0.1,0.1-0.1,0.2-0.2,0.3c-0.1,0.2-0.2,0.3-0.4,0.5c-0.2,0.3-0.5,0.7-0.7,1c-0.1,0.2-0.2,0.3-0.4,0.5c0,0-0.1,0.1-0.1,0.1
	c-0.1,0.1-0.3,0.1-0.4-0.1c0-0.1,0-0.1-0.1-0.2c-0.1-0.5-0.1-0.9-0.2-1.4c-0.1-0.7-0.1-1.4-0.1-2.1c0-0.6,0-1.2,0-1.7
	c0-0.5,0.1-0.9,0.1-1.4c0-0.4,0.1-0.8,0.2-1.2c0-0.1,0.1-0.3,0.1-0.4c0.2-0.7,0.3-1.3,0.5-2c0.1-0.3,0.2-0.6,0.3-1
	c0-0.1,0-0.3,0.1-0.4c0.1-0.3,0.1-0.6,0.2-0.9c0.1-0.3,0.2-0.6,0.2-0.8c0.1-0.3,0.1-0.5,0.2-0.8c0.1-0.3,0.1-0.6,0.2-0.9
	c0-0.1,0-0.2,0.1-0.3c0.1-0.4,0.2-0.9,0.3-1.3c0-0.1,0-0.1,0-0.2c0.1-0.2,0.1-0.5,0.2-0.7c0.1-0.3,0.1-0.6,0.2-1
	c0.1-0.3,0.1-0.5,0.2-0.8c0.1-0.2,0.1-0.4,0.2-0.7c0-0.2,0-0.3-0.1-0.5c-0.2-0.4-0.3-0.8-0.4-1.2c-0.1-0.4-0.1-0.8-0.2-1.2
	c0-0.3-0.1-0.5-0.1-0.8c0-0.3,0.1-0.6,0.1-0.9c0-0.4,0.1-0.7,0.2-1c0-0.1,0.1-0.3,0.2-0.4c0.1-0.3,0.2-0.6,0.4-0.9
	c0.1-0.2,0.2-0.4,0.4-0.5c0.2-0.4,0.5-0.6,0.9-0.9c0.2-0.2,0.4-0.3,0.6-0.4c0.3-0.2,0.7-0.3,1.1-0.3c0.4-0.1,0.8,0,1.2,0.1
	c0.1,0,0.2,0.1,0.4,0.1c0.1,0,0.1,0.1,0.2,0.1c0.1,0.1,0.2,0.1,0.3,0.2c0.3,0.2,0.5,0.5,0.7,0.8c0.3,0.4,0.4,0.8,0.4,1.2
	c0.1,0.5,0.1,1,0,1.5c-0.1,0.4-0.1,0.7-0.2,1.1c-0.1,0.3-0.2,0.6-0.3,0.9c-0.1,0.2-0.1,0.5-0.2,0.7c-0.1,0.4-0.2,0.8-0.3,1.1
	c-0.1,0.4-0.2,0.8-0.4,1.1c-0.1,0.3-0.2,0.7-0.3,1c-0.1,0.4-0.2,0.7-0.3,1.1c-0.1,0.3-0.1,0.5-0.1,0.8c0,0.4,0.1,0.8,0.3,1.1
	c0.2,0.5,0.6,1,1,1.3c0.1,0.1,0.1,0.1,0.2,0.1c0.4,0.2,0.8,0.4,1.2,0.5c0.3,0.1,0.6,0.1,0.9,0.1c0.3,0,0.6,0,0.8-0.1
	c0,0,0.1,0,0.1,0c0.3,0,0.5-0.1,0.7-0.2c0.3-0.1,0.7-0.3,1-0.5c0.4-0.3,0.8-0.6,1.2-1c0.2-0.2,0.4-0.4,0.6-0.7
	c0.1-0.1,0.1-0.2,0.2-0.3c0.1-0.1,0.2-0.3,0.3-0.4c0.2-0.3,0.4-0.6,0.5-0.9c0.1-0.2,0.2-0.4,0.3-0.7c0.2-0.4,0.3-0.8,0.4-1.2
	c0.1-0.5,0.3-0.9,0.4-1.4c0.1-0.4,0.2-0.8,0.2-1.2c0-0.3,0.1-0.7,0.1-1c0.1-0.9,0.1-1.7,0.1-2.6c0-0.4-0.1-0.9-0.2-1.3
	c0-0.1,0-0.2-0.1-0.3c0-0.1,0-0.1,0-0.2c-0.1-0.2-0.2-0.5-0.3-0.7C29.2,10,29.1,9.7,29,9.4c-0.1-0.2-0.3-0.5-0.4-0.7
	c-0.1-0.2-0.3-0.4-0.4-0.6c-0.3-0.3-0.6-0.7-0.9-0.9c-0.2-0.1-0.4-0.3-0.6-0.4c-0.5-0.3-1.1-0.7-1.7-0.9c-0.3-0.1-0.6-0.2-1-0.3
	c-0.5-0.2-1-0.2-1.6-0.3c-0.1,0-0.1,0-0.2,0c-0.7-0.1-1.4-0.1-2.2-0.1c-0.4,0-0.8,0.1-1.1,0.1c-0.6,0.1-1.2,0.2-1.8,0.4
	c-0.5,0.2-0.9,0.3-1.3,0.5C15.4,6.5,15,6.7,14.6,7c-0.3,0.2-0.6,0.4-0.9,0.7c-0.3,0.2-0.6,0.5-0.8,0.8c-0.2,0.2-0.4,0.4-0.5,0.6
	c-0.3,0.3-0.5,0.7-0.8,1.1c-0.2,0.2-0.3,0.5-0.4,0.8c-0.1,0.2-0.2,0.4-0.3,0.6c-0.1,0.1-0.1,0.3-0.1,0.4c-0.1,0.3-0.2,0.6-0.3,0.9
	c0,0.1,0,0.1,0,0.2c0,0.1,0,0.2-0.1,0.2c0,0.1-0.1,0.2-0.1,0.3c0,0.2-0.1,0.5-0.1,0.8c0,0.1,0,0.3,0,0.4c0,0.6,0,1.1,0,1.7
	c0,0.2,0.1,0.4,0.1,0.6c0,0,0,0.1,0,0.1c0,0.3,0.2,0.6,0.3,0.9c0.1,0.3,0.2,0.5,0.3,0.8c0.1,0.2,0.3,0.4,0.4,0.6
	c0.2,0.2,0.3,0.4,0.5,0.7c0.1,0.2,0.2,0.4,0.1,0.7c-0.1,0.2-0.1,0.4-0.2,0.6c-0.1,0.4-0.2,0.8-0.3,1.1c0,0.1-0.1,0.3-0.1,0.4
	c-0.1,0.3-0.4,0.4-0.7,0.3c-0.2,0-0.3,0-0.5-0.1c-0.2-0.1-0.4-0.2-0.6-0.3c-0.4-0.3-0.8-0.6-1.2-0.9c-0.3-0.3-0.6-0.7-0.9-1.1
	c0,0-0.1-0.1-0.1-0.2c-0.1-0.3-0.3-0.5-0.4-0.8c-0.1-0.2-0.2-0.4-0.3-0.7c-0.1-0.3-0.2-0.5-0.3-0.8c-0.1-0.3-0.1-0.6-0.2-0.9
	c0-0.2-0.1-0.3-0.1-0.5c0,0,0-0.1,0-0.1C6,16,6,15.2,6,14.3c0-0.5,0.1-1,0.2-1.5c0.1-0.6,0.3-1.1,0.5-1.7c0-0.1,0-0.2,0.1-0.3
	c0-0.1,0.1-0.2,0.1-0.4c0-0.1,0.1-0.2,0.1-0.3c0.1-0.3,0.3-0.6,0.4-0.9C7.6,9,7.7,8.8,7.8,8.6C7.9,8.5,8,8.4,8.1,8.2
	C8.2,8,8.4,7.7,8.6,7.5c0.3-0.4,0.6-0.7,0.9-1.1c0.3-0.3,0.6-0.6,0.9-0.9c0.1-0.1,0.2-0.2,0.3-0.3C10.8,5.2,10.9,5.1,11,5
	c0.1-0.1,0.3-0.2,0.4-0.3c0.2-0.1,0.3-0.2,0.5-0.3c0.3-0.2,0.6-0.4,1-0.6c0.2-0.1,0.4-0.2,0.6-0.3c0.4-0.2,0.7-0.4,1.1-0.5
	c0.1-0.1,0.2-0.1,0.4-0.1c0,0,0.1,0,0.1,0c0.2-0.1,0.5-0.2,0.8-0.3c0.3-0.1,0.7-0.2,1-0.3C17,2.1,17.3,2,17.6,1.9c0.1,0,0.2,0,0.3,0
	c0.7-0.1,1.5-0.2,2.3-0.3c0.5,0,1-0.1,1.5-0.1c0.5,0,1,0.1,1.5,0.1c0.3,0,0.5,0.1,0.8,0.1c0.2,0,0.4,0.1,0.7,0.1
	c0.3,0.1,0.6,0.1,0.9,0.2c0,0,0.1,0,0.1,0c0.1,0,0.3,0.1,0.4,0.1c0.3,0.1,0.6,0.2,0.8,0.3c0.2,0.1,0.3,0.2,0.5,0.2
	c0.3,0.1,0.6,0.2,0.8,0.4c0.2,0.1,0.4,0.2,0.7,0.4c0.3,0.2,0.6,0.4,0.8,0.5C29.8,4,29.9,4.1,30,4.2c0,0,0.1,0.1,0.1,0.1
	c0.3,0.2,0.6,0.5,0.9,0.7c0.2,0.2,0.4,0.4,0.6,0.6c0,0,0,0,0,0c0.2,0.3,0.5,0.5,0.7,0.8c0.2,0.2,0.4,0.5,0.6,0.8
	c0.2,0.3,0.4,0.6,0.6,0.9c0.3,0.4,0.4,0.8,0.6,1.2c0.1,0.3,0.3,0.6,0.4,0.9c0.1,0.3,0.2,0.6,0.3,0.9c0.1,0.3,0.2,0.6,0.2,0.9
	c0.1,0.3,0.1,0.5,0.1,0.8c0.1,0.8,0.1,1.5,0,2.3c0,0.5-0.1,1.1-0.1,1.6c0,0.3-0.1,0.7-0.2,1c-0.1,0.3-0.1,0.6-0.2,0.9
	c-0.1,0.2-0.1,0.4-0.1,0.6c-0.1,0.2-0.1,0.5-0.2,0.7c-0.1,0.3-0.2,0.6-0.3,0.9c-0.1,0.4-0.3,0.7-0.5,1.1c-0.2,0.4-0.4,0.7-0.6,1.1
	c-0.1,0.2-0.3,0.5-0.5,0.7c-0.1,0.1-0.1,0.2-0.2,0.4c-0.1,0.2-0.3,0.4-0.4,0.6c-0.1,0.1-0.2,0.3-0.3,0.4c-0.1,0.2-0.3,0.3-0.4,0.4
	c-0.3,0.3-0.5,0.5-0.8,0.8c-0.1,0.1-0.3,0.2-0.4,0.3c0,0-0.1,0.1-0.1,0.1c-0.2,0.2-0.4,0.3-0.6,0.4c-0.1,0-0.1,0.1-0.2,0.1
	c-0.4,0.3-0.8,0.4-1.2,0.6c-0.3,0.2-0.7,0.3-1.1,0.4c-0.1,0-0.2,0.1-0.4,0.1c-0.4,0.1-0.7,0.2-1.1,0.3c-0.5,0.1-0.9,0.1-1.4,0.2
	c-0.5,0-1,0-1.6-0.1c-0.4-0.1-0.7-0.2-1.1-0.3c0,0,0,0-0.1,0c-0.4-0.1-0.7-0.3-1.1-0.5c-0.1,0-0.2-0.1-0.3-0.2
	c-0.5-0.3-0.8-0.6-1.2-1c-0.1-0.1-0.2-0.2-0.3-0.3C18.3,26.2,18.2,26.1,18.2,26z"/>
</svg>
