<svg version="1.1" class="icon-sound" xmlns="http://www.w3.org/2000/svg" viewBox="0 0 40 40">
<g>
	<path d="M1,23.4c0-0.1,0.1-0.2,0.1-0.3c0.1-0.5,0.1-0.9,0.2-1.4c0-0.1,0.1-0.1,0.1-0.2c0.1,0.1,0.1,0.1,0.2,0.2
		c0.1,0.3,0.1,0.6,0.2,0.9c0,0.1,0,0.2,0,0.3c0.2,0.6,0,1.1-0.1,1.6c0,0.2-0.1,0.4-0.1,0.6c0,0.1,0,0.1-0.1,0.2
		c0,0.1-0.1,0.1-0.1,0.1c0-0.1-0.1-0.1-0.1-0.2c-0.1-0.5-0.1-0.9-0.2-1.4c0-0.1-0.1-0.2-0.1-0.2C1,23.6,1,23.5,1,23.4z"/>
	<path d="M28.2,27.4c-2.1,0-4.3,0-6.4,0c-0.1,0-0.3,0-0.4,0c-0.2,0-0.3-0.2-0.3-0.4c0-0.1,0-0.2,0-0.3c0-4.3,0-8.5,0-12.8
		c0-0.1,0-0.1,0-0.2c0-0.2,0.1-0.4,0.3-0.5c0.6-0.2,1.3-0.4,2-0.5c1.4-0.2,2.8,0,4.1,0.5c0.7,0.2,1.4,0.6,2,1c0.4,0.3,0.8,0.7,1.2,1
		c0.3,0.3,0.5,0.6,0.7,0.9c0.3,0.4,0.5,0.8,0.7,1.3c0.2,0.4,0.2,0.8,0.4,1.2c0,0.1,0,0.3,0.1,0.5c0,0.2,0.1,0.3,0.3,0.2
		c0.7-0.2,1.4-0.3,2.1-0.2c0.8,0.1,1.5,0.3,2.2,0.8c0.5,0.3,0.9,0.7,1.2,1.1c0.1,0.1,0.2,0.3,0.3,0.5c0.5,0.9,0.6,1.9,0.2,2.9
		c-0.2,0.7-0.6,1.3-1.2,1.8c-0.5,0.5-1.1,0.8-1.8,1c-0.5,0.2-1.1,0.2-1.7,0.2c-1.6,0-3.3,0-4.9,0C28.9,27.4,28.5,27.4,28.2,27.4z"/>
	<path d="M19.4,19c0-1.5,0.1-3.1,0.1-4.6c0-0.1,0-0.2,0-0.3c0.1-0.2,0.3-0.4,0.5-0.4c0.3,0,0.4,0.1,0.4,0.4c0,0.3,0,0.7,0,1
		c0,1.9,0.1,3.8,0.1,5.7c0,0.5,0,1,0,1.5c0.1,1.2-0.1,2.5-0.1,3.7c0,0.3,0,0.7-0.1,1c0,0.3-0.2,0.4-0.5,0.4c-0.3,0-0.5-0.2-0.5-0.5
		c0-0.8-0.1-1.5-0.1-2.3C19.3,22.7,19.3,20.9,19.4,19C19.4,19,19.4,19,19.4,19z"/>
	<path d="M17.8,19.7c0-1.6,0.1-3.1,0.1-4.7c0-0.4,0.1-0.5,0.3-0.5c0.3-0.1,0.5,0.1,0.5,0.4c0,0.3,0,0.5,0,0.8c0.1,2.5,0.1,5,0.2,7.4
		c0,1-0.1,2-0.1,2.9c0,0.3,0,0.6,0,0.9c0,0.4-0.3,0.5-0.7,0.4c-0.2-0.1-0.2-0.2-0.2-0.4c0-0.4,0-0.9-0.1-1.3c-0.1-1.8-0.1-3.6,0-5.4
		C17.8,20.1,17.8,19.9,17.8,19.7C17.8,19.7,17.8,19.7,17.8,19.7z"/>
	<path d="M17.3,20.5c0,1,0.1,1.9,0.1,2.9c0,0.9-0.1,1.8-0.1,2.7c0,0.3,0,0.6-0.1,0.9c0,0.3-0.3,0.5-0.6,0.4
		c-0.2-0.1-0.2-0.2-0.3-0.4c0-0.9-0.1-1.9-0.1-2.8c-0.1-1.5,0-2.9,0.1-4.4c0-1.1,0.1-2.2,0.1-3.3c0-0.2,0-0.3,0.2-0.4
		c0.3-0.2,0.6,0,0.7,0.3c0,0.2,0,0.5,0,0.7C17.2,18.1,17.3,19.3,17.3,20.5C17.3,20.5,17.3,20.5,17.3,20.5z"/>
	<path d="M14.7,20.7c0-1.5,0.1-3.1,0.1-4.6c0-0.3,0.1-0.4,0.4-0.4c0.2,0,0.4,0.2,0.4,0.4c0,0.4,0,0.7,0,1.1c0.1,2,0.1,4,0.2,5.9
		c0,1-0.1,1.9-0.1,2.9c0,0.3,0,0.6-0.1,0.8c0,0.1,0,0.2-0.1,0.3c-0.1,0.2-0.2,0.3-0.4,0.2c-0.2,0-0.3-0.1-0.3-0.4
		c0-0.7-0.1-1.4-0.1-2C14.6,23.5,14.6,22.1,14.7,20.7C14.6,20.7,14.7,20.7,14.7,20.7z"/>
	<path d="M13.1,20c0-1.4,0.1-2.7,0.1-4.1c0-0.3,0.1-0.4,0.3-0.4c0.2,0,0.3,0,0.4,0.2c0,0,0,0.1,0,0.1c0,0.6,0.1,1.1,0.1,1.7
		c0.1,1.9,0.1,3.9,0.2,5.8c0,0.7-0.1,1.4-0.1,2.1c0,0.5-0.1,1-0.2,1.5c0,0.2-0.1,0.4-0.3,0.4c-0.2,0-0.4-0.1-0.4-0.3
		c0-0.4-0.1-0.7-0.1-1.1c-0.1-1.5-0.2-3.1-0.1-4.6C13.1,20.9,13.1,20.5,13.1,20C13.1,20,13.1,20,13.1,20z"/>
	<path d="M12.5,21.1c0,0.5,0,1,0.1,1.5c0.1,0.9,0,1.7-0.1,2.6c0,0.6-0.1,1.1-0.2,1.7c0,0.1,0,0.2,0,0.2c0,0.2-0.1,0.2-0.3,0.2
		c-0.2,0-0.3-0.1-0.3-0.2c0,0,0-0.1,0-0.1c-0.1-1.3-0.2-2.7-0.2-4c0-1.8,0.1-3.5,0.2-5.3c0-0.5,0-0.9,0-1.4c0-0.1,0-0.1,0-0.2
		c0-0.2,0.1-0.3,0.3-0.3c0.2,0,0.3,0.1,0.3,0.3c0,0.5,0,1,0.1,1.5C12.4,18.8,12.5,20,12.5,21.1C12.6,21.1,12.6,21.1,12.5,21.1z"/>
	<path d="M11.1,23.4c-0.1,0.5-0.1,1.1-0.2,1.7c-0.1,0.6-0.1,1.2-0.1,1.8c0,0.3-0.1,0.4-0.3,0.4c-0.2,0-0.3-0.1-0.3-0.4
		c-0.1-0.7-0.1-1.5-0.2-2.2c-0.1-1.5,0-3.1,0-4.6c0-0.8,0-1.7,0.1-2.5c0-0.3,0-0.6,0-0.9c0-0.3,0.1-0.3,0.3-0.3
		c0.2,0,0.3,0.1,0.3,0.4c0,0.6,0,1.3,0.1,1.9c0,0.6,0,1.2,0.1,1.9C10.9,21.5,11,22.4,11.1,23.4z"/>
	<path d="M9.5,23.3c0,0.5-0.1,1.1-0.1,1.6c-0.1,0.7-0.2,1.4-0.2,2.1c0,0.2-0.1,0.3-0.3,0.3c-0.2,0-0.2-0.1-0.3-0.3
		c0-0.5-0.1-1.1-0.1-1.6c-0.1-1-0.2-1.9-0.1-2.9c0.1-1.1,0.1-2.2,0.2-3.3c0-0.4,0-0.7,0-1.1c0-0.1,0-0.2,0-0.2
		c0-0.2,0.1-0.3,0.3-0.3c0.2,0,0.2,0.2,0.2,0.3c0,0.5,0.1,0.9,0.1,1.4c0.1,1,0.1,2.1,0.2,3.1C9.5,22.7,9.5,23,9.5,23.3
		C9.5,23.3,9.5,23.3,9.5,23.3z"/>
	<path d="M8,23.5c-0.1,0.6-0.2,1.1-0.2,1.7c0,0.3-0.1,0.6-0.1,0.9c0,0.3,0,0.6-0.1,0.9c0,0.1,0,0.3-0.2,0.3c-0.2,0-0.2-0.1-0.3-0.3
		c0-0.6-0.1-1.2-0.1-1.8c0-0.4,0-0.7-0.1-1.1C6.8,23.3,7,22.5,7,21.6c0-0.4,0.1-0.8,0.1-1.2c0-0.1,0-0.2,0-0.3
		c0-0.2,0.1-0.3,0.2-0.3c0.2,0,0.2,0.1,0.2,0.3c0,0.4,0.1,0.7,0.1,1.1C7.8,22,7.9,22.7,8,23.3C8,23.4,8,23.5,8,23.5
		C8,23.5,8,23.5,8,23.5z"/>
	<path d="M5.4,23.5c0.1-0.6,0.1-1.3,0.2-2c0-0.5,0.1-1,0.1-1.5c0,0,0-0.1,0-0.1c0-0.1,0.1-0.2,0.2-0.2c0.1,0,0.2,0.1,0.2,0.2
		c0,0.3,0,0.7,0.1,1c0.1,0.5,0.1,1,0.2,1.6c0.1,0.7,0.1,1.4,0,2.2c-0.1,0.8-0.2,1.6-0.3,2.4c0,0.1,0,0.3-0.2,0.3
		c-0.2,0-0.2-0.1-0.2-0.2C5.6,25.8,5.5,24.7,5.4,23.5z"/>
	<path d="M3.9,23.4c0.1-0.9,0.2-1.8,0.2-2.8c0-0.2,0.1-0.4,0.1-0.7c0-0.1,0.1-0.1,0.1-0.2c0,0.1,0.1,0.1,0.1,0.2
		c0.1,0.3,0.1,0.6,0.1,0.9c0.1,0.7,0.1,1.3,0.2,2c0.1,0.7,0,1.3-0.1,2c-0.1,0.7-0.2,1.3-0.3,2c0,0.1,0,0.3-0.2,0.3
		c0,0-0.1-0.2-0.1-0.3c-0.2-1-0.2-2-0.3-3.1C3.9,23.7,3.9,23.6,3.9,23.4z"/>
	<path d="M3.5,23.5c-0.1,0.7-0.2,1.4-0.3,2.1c0,0.2-0.1,0.4-0.1,0.7c0,0.1,0,0.1,0,0.2c0,0-0.1,0.1-0.1,0.1c0,0-0.1-0.1-0.1-0.1
		c0-0.1,0-0.1,0-0.2c-0.1-0.8-0.2-1.7-0.3-2.5c0-0.3,0-0.7,0.1-1.1c0-0.4,0.1-0.8,0.1-1.3c0-0.3,0.1-0.6,0.2-0.9
		c0-0.1,0.1-0.1,0.1-0.2c0,0.1,0.1,0.1,0.1,0.2c0.1,0.9,0.3,1.9,0.4,2.8C3.4,23.4,3.4,23.5,3.5,23.5C3.4,23.5,3.4,23.5,3.5,23.5z"/>
</g>
</svg>
