<svg version="1.1" class="icon-vimeo" xmlns="http://www.w3.org/2000/svg"
	 viewBox="0 0 40 40">
<g>
	<path d="M23.2,12.4c0.7-3.4,2.4-5.8,5.2-7.3c1.5-0.8,3.2-1.4,4.8-1.5c4.2-0.3,6.7,2.5,6.3,6.7c-0.5,4.3-2.1,8.2-4.5,11.8
		c-3.4,5.3-7.6,9.8-12.6,13.5c-2.9,2.1-5.6,1.8-7.7-1c-0.9-1.2-1.6-2.7-2.1-4.2c-1.7-5-3.2-10-4.8-15c-0.9-2.8-1.6-3-4.1-1.5
		c-0.3,0.2-0.6,0.4-1.1,0.6c-0.5-0.6-1-1.3-1.6-2c2.8-3.1,5.7-6.1,9.5-8.1c3.2-1.6,5.4-0.9,6.4,2.6c0.9,3.1,1.3,6.3,2.1,9.4
		c0.6,2.5,1.4,4.9,2.3,7.4c0.4,1.1,1.1,1.2,1.8,0.4c2.3-2.5,4.2-5.2,5.2-8.6c0.4-1.3,0.2-2.5-0.9-3.4c-1.1-0.9-2.3-0.6-3.5-0.1
		C23.7,12.2,23.6,12.2,23.2,12.4z"/>
</g>
</svg>
